<?xml version="1.0" encoding="utf-8"?>
<!-- Generator: Adobe Illustrator 21.0.2, SVG Export Plug-In . SVG Version: 6.00 Build 0)  -->
<svg version="1.1" id="Layer_1" xmlns="http://www.w3.org/2000/svg" xmlns:xlink="http://www.w3.org/1999/xlink" x="0px" y="0px"
	 viewBox="0 0 345 360" style="enable-background:new 0 0 345 360;" xml:space="preserve">
<style type="text/css">
	.st0{fill:#F0C6BF;}
	.st1{fill:#E99F96;}
	.st2{fill:#F2E1DE;}
	.st3{fill:#540836;}
</style>
<g>
	<path class="st0" d="M261.1,142.9V84.2c0-7.9-6.4-14.3-14.3-14.3c-7.9,0-14.3,6.4-14.3,14.3v58.7h-1.8V56c0-10.5-8.5-19-19-19l0,0
		c-10.5,0-19,8.5-19,19v87h-2.5V37.6c0-10.5-8.5-19-19-19h0c-10.5,0-19,8.5-19,19v105.3h-2.5V50.1c0-10.5-8.5-19-19-19
		s-19,8.5-19,19v92.8h0v32.4l-3.4-3.4c-12.8-12.8-33.6-12.8-46.4,0c-5.7,5.7-5.7,14.9,0,20.6l65.1,65.1c3.2,3.2,6.9,5.7,10.9,7.4
		c6.4,3.2,13.7,5.1,21.3,5.1h54.5c26.3,0,47.6-21.3,47.6-47.6L261.1,142.9L261.1,142.9z"/>
	<path class="st1" d="M213.5,270.1h-35.6c0.3-0.3,0.6-0.6,0.8-1c6.6-8.3,8.8-18.9,6.8-28.9c-1.1,5.2-3.3,10.1-6.8,14.5
		c-10.3,12.8-27.2,16.3-41.1,10.3c-0.5-0.2-0.9-0.4-1.4-0.6v74.6h100v-74.7C229.5,268,221.8,270.1,213.5,270.1z"/>
	<g>
		<path class="st2" d="M61.7,186.4L61.7,186.4c12.8-12.8,33.6-12.8,46.4,0l29.2,29.2c13.8-6.1,30.8-2.9,41.2,9.8
			c3.6,4.4,5.9,9.5,7,14.8c2.1-10.1-0.2-20.9-7-29.2c-10.4-12.7-27.4-16-41.2-9.8L108.1,172c-12.8-12.8-33.6-12.8-46.4,0l0,0
			c-4.7,4.7-5.5,11.9-2.3,17.5C60,188.4,60.8,187.3,61.7,186.4z"/>
	</g>
	<g>
		<path class="st2" d="M130.5,31.1L130.5,31.1c-10.5,0-19,8.5-19,19v14.4c0-10.5,8.5-19,19-19h0c10.5,0,19,8.5,19,19V50.1
			C149.5,39.6,141,31.1,130.5,31.1z"/>
	</g>
	<g>
		<path class="st2" d="M246.8,69.9c-7.9,0-14.3,6.4-14.3,14.3v14.4c0-7.9,6.4-14.3,14.3-14.3c7.9,0,14.3,6.4,14.3,14.3V84.2
			C261.1,76.3,254.7,69.9,246.8,69.9z"/>
	</g>
	<g>
		<path class="st2" d="M171.1,18.6L171.1,18.6c-10.5,0-19,8.5-19,19v14.4c0-10.5,8.5-19,19-19h0c10.5,0,19,8.5,19,19V37.6
			C190.1,27.1,181.6,18.6,171.1,18.6z"/>
	</g>
	<g>
		<path class="st2" d="M211.7,36.9L211.7,36.9c-10.5,0-19,8.5-19,19v14.4c0-10.5,8.5-19,19-19l0,0c10.5,0,19,8.5,19,19V56
			C230.8,45.5,222.2,36.9,211.7,36.9z"/>
	</g>
	<path class="st3" d="M264.7,84.2c0-9.8-8-17.9-17.9-17.9c-4.8,0-9.2,1.9-12.5,5.1V56c0-12.5-10.2-22.6-22.6-22.6
		c-7.3,0-13.8,3.5-18,8.9v-4.6c0-12.5-10.2-22.6-22.6-22.6c-12.1,0-22,9.5-22.6,21.4c-4.1-5.4-10.7-8.9-18-8.9
		c-12.5,0-22.6,10.2-22.6,22.6l0,116.8c-14.3-11.6-35.4-10.8-48.7,2.5c-3.4,3.4-5.3,8-5.3,12.8s1.9,9.4,5.3,12.8l65.1,65.1
		c0.2,0.2,0.5,0.4,0.8,0.6c2.4,2.1,4.9,4,7.6,5.6v72.6c0,2,1.6,3.6,3.6,3.6h100c2,0,3.6-1.6,3.6-3.6v-72.6
		c15.4-9.2,24.8-25.9,24.8-43.9L264.7,84.2z M234.5,261.1c-1.2,0.6-1.9,1.8-1.9,3.2v71.1h-92.8v-71.1c0-1.3-0.7-2.5-1.9-3.2
		c-3.1-1.7-6-3.8-8.7-6.2c-0.2-0.2-0.3-0.3-0.5-0.4L64.3,190c-2.1-2.1-3.2-4.8-3.2-7.7c0-2.9,1.1-5.7,3.2-7.7
		c11.4-11.4,29.9-11.4,41.3,0l3.4,3.4l0,0l25.8,25.8c1.1,1.1,2.7,1.4,4,0.7c12.8-5.7,28-2.1,36.9,8.8c9.3,11.3,9.4,27.7,0.2,39.1
		c-1.2,1.6-1,3.8,0.6,5.1c1.6,1.2,3.8,1,5.1-0.6c11.2-14,11.1-34.3-0.3-48.2c-10.4-12.7-27.9-17.4-43.1-11.8l-23.1-23.1l0-123.7
		c0-8.5,6.9-15.4,15.4-15.4c8.5,0,15.4,6.9,15.4,15.4v92.8c0,2,1.6,3.6,3.6,3.6h2.5c2,0,3.6-1.6,3.6-3.6V37.6
		c0-8.5,6.9-15.4,15.4-15.4c8.5,0,15.4,6.9,15.4,15.4v105.3c0,2,1.6,3.6,3.6,3.6h2.5c2,0,3.6-1.6,3.6-3.6V56
		c0-8.5,6.9-15.4,15.4-15.4c8.5,0,15.4,6.9,15.4,15.4v87c0,2,1.6,3.6,3.6,3.6h1.8c2,0,3.6-1.6,3.6-3.6V84.2
		c0-5.9,4.8-10.7,10.7-10.7s10.7,4.8,10.7,10.7l0,138.3C257.5,238.6,248.7,253.4,234.5,261.1z"/>
</g>
</svg>
