<?xml version="1.0" encoding="utf-8"?>
<!-- Generator: Adobe Illustrator 21.0.2, SVG Export Plug-In . SVG Version: 6.00 Build 0)  -->
<svg version="1.1" id="Layer_1" xmlns="http://www.w3.org/2000/svg" xmlns:xlink="http://www.w3.org/1999/xlink" x="0px" y="0px"
	 viewBox="0 0 345 360" style="enable-background:new 0 0 345 360;" xml:space="preserve">
<style type="text/css">
	.st0{fill:#F0C6BF;}
	.st1{fill:#F2E1DE;}
	.st2{fill:#E99F96;}
	.st3{fill:#540836;}
</style>
<g>
	<path class="st0" d="M244.1,106.1c-7.9,0-14.3,6.4-14.3,14.3v21.7h-1.8v-27.2c0-10.5-8.5-19-19-19l0,0c-10.5,0-19,8.5-19,19v27.2
		h-2.5v-34.1c0-10.5-8.5-19-19-19h0c-10.5,0-19,8.5-19,19v34.1h-2.5v-30c0-10.5-8.5-19-19-19s-19,8.5-19,19v34.6
		c-7.3,0-13.8,4.8-15.9,11.8l-6,20c-3.8,12.6-1.4,26.2,6.4,36.7l23.1,32.3c0.8,1.2,1.6,2.4,2.5,3.5l0.2,0.2c0,0,0,0,0.1,0.1
		c8.7,10.9,22.1,17.9,37.2,17.9h54.5c26.3,0,47.6-21.3,47.6-47.6V120.3C258.4,112.5,252,106.1,244.1,106.1z"/>
	<g>
		<path class="st1" d="M127.8,93L127.8,93c-10.5,0-19,8.5-19,19v14.4c0-10.5,8.5-19,19-19l0,0c10.5,0,19,8.5,19,19V112
			C146.9,101.5,138.3,93,127.8,93z"/>
	</g>
	<g>
		<path class="st1" d="M168.4,88.9c-10.5,0-19,8.5-19,19v14.4c0-10.5,8.5-19,19-19c10.5,0,19,8.5,19,19v-14.4
			C187.5,97.4,178.9,88.9,168.4,88.9z"/>
	</g>
	<g>
		<path class="st1" d="M209,95.8c-10.5,0-19,8.5-19,19v14.4c0-10.5,8.5-19,19-19c10.5,0,19,8.5,19,19v-14.4
			C228.1,104.3,219.5,95.8,209,95.8z"/>
	</g>
	<g>
		<g>
			<path class="st1" d="M140.6,198.3c-1.5,0.4-2.9,0.8-4.1,1.3c-0.6,0.2-1.3,0.5-1.9,0.8v14.4c13.6-6.1,30.3-3,40.8,9.3
				c3.8,4.5,6.3,9.8,7.4,15.3c2.1-10.2-0.3-21.3-7.4-29.7C166.5,199.1,152.9,195.3,140.6,198.3z"/>
		</g>
	</g>
	<g>
		<g>
			<path class="st1" d="M86.9,192.9l6-20c2.1-7,8.6-11.8,15.9-11.8h68.1c6,0,11.1,3.6,13.4,8.8c0.8-2.8,1.2-5.7,1.2-8.7
				c0-8-6.5-14.5-14.5-14.5h-68.1c-7.3,0-13.8,4.8-15.9,11.8l-6,20c-1.9,6.3-2.2,12.9-1.1,19.2C86,196,86.4,194.4,86.9,192.9z"/>
		</g>
	</g>
	<g>
		<path class="st2" d="M175.3,269.2c7.2-8.4,9.7-19.5,7.5-29.8c-1.2,5.6-3.7,11-7.7,15.6c-13.4,15.4-41.8,10.5-56-3.7l-3.1-4.4
			c4.3,6.9,10.4,12.7,17.6,16.6v76.4h100v-76.5c-6.8,3.7-14.5,5.8-22.8,5.8H175.3z"/>
		<path class="st2" d="M208.1,176.8c10.9,0.5,20-8.2,20-19v-14.4c0,10.8-9,19.5-20,19c-10.2-0.5-18.1-9.3-18.1-19.6v14.4
			C190,167.5,197.9,176.3,208.1,176.8z"/>
		<path class="st2" d="M134.6,200.3c12.1-5.4,26.6-3.5,37,5.5c11.6-5,19.8-16.6,19.8-30.1c0-2-0.4-4-1.2-5.7
			c-3.8,13.9-16.5,24.1-31.6,24.1h-46.8l4.4,6.3H134.6z"/>
		<path class="st2" d="M243.2,162.4c-7.6-0.5-13.3-7.1-13.3-14.7v14.4c0,7.6,5.7,14.2,13.3,14.7c8.3,0.5,15.2-6,15.2-14.2v-14.4
			C258.4,156.3,251.5,162.9,243.2,162.4z"/>
	</g>
	<g>
		<path class="st1" d="M244.1,106.1L244.1,106.1c-7.9,0-14.3,6.4-14.3,14.3v14.4c0-7.9,6.4-14.3,14.3-14.3h0
			c7.9,0,14.3,6.4,14.3,14.3v-14.4C258.4,112.5,252,106.1,244.1,106.1z"/>
	</g>
	<path class="st3" d="M244.1,102.5c-5.3,0-10.1,2.4-13.4,6.1c-2.7-9.4-11.4-16.4-21.7-16.4c-7.8,0-14.7,4-18.7,10
		c-2.6-9.7-11.4-16.8-21.9-16.8c-9.8,0-18.2,6.3-21.3,15c-4-6.5-11.1-10.9-19.3-10.9c-12.5,0-22.6,10.2-22.6,22.6v31.3
		c-7.4,1.3-13.5,6.6-15.7,14l-6,20c-4.1,13.6-1.5,28.5,6.9,39.8l23.1,32.3c0.8,1.3,1.7,2.5,2.6,3.7l0.1,0.1c0.1,0.1,0.2,0.3,0.3,0.4
		c3.8,4.7,8.4,8.7,13.5,11.8v74.4c0,2,1.6,3.6,3.6,3.6h100c2,0,3.6-1.6,3.6-3.6v-74.4c15.4-9.2,24.8-25.9,24.8-43.9V120.3
		C262,110.5,254,102.5,244.1,102.5z M233.5,120.3c0-5.9,4.8-10.7,10.7-10.7c5.9,0,10.7,4.8,10.7,10.7v27.8c0,3-1.2,5.7-3.4,7.8
		c-2.2,2-5,3-8,2.9c-5.6-0.4-9.9-5.2-9.9-11.1V120.3z M193.6,114.8c0-8.5,6.9-15.4,15.4-15.4c8.5,0,15.4,6.9,15.4,15.4v28.6
		c0,4.3-1.7,8.2-4.8,11.2c-3.1,2.9-7.1,4.5-11.4,4.2c-8.1-0.4-14.7-7.5-14.7-16V114.8z M153,107.9c0-8.5,6.9-15.4,15.4-15.4
		c8.5,0,15.4,6.9,15.4,15.4v35.4c0,0.4,0,0.7,0,1.1c-2.1-0.9-4.5-1.4-7-1.4H153c0-0.1,0-0.2,0-0.2V107.9z M112.4,112
		c0-8.5,6.9-15.4,15.4-15.4s15.4,6.9,15.4,15.4v31h-30.8c0-0.1,0-0.2,0-0.2V112z M231.9,260.2c-1.2,0.6-1.9,1.8-1.9,3.2v72.9h-92.8
		v-72.9c0-1.3-0.7-2.5-1.9-3.2c-5.2-2.8-9.6-6.6-13.3-11.2c0,0-0.1-0.1-0.1-0.1l0,0c0,0-0.1-0.1-0.1-0.1c-0.8-1-1.6-2.1-2.3-3.3
		c0,0-0.1-0.1-0.1-0.1L96.2,213c-7.1-9.6-9.3-22.1-5.8-33.5l6-20c1.7-5.5,6.6-9.2,12.4-9.2h68.1c6,0,10.9,4.9,10.9,10.9
		c0,16.1-13.1,29.2-29.2,29.2h-44.7c-2,0-3.6,1.6-3.6,3.6c0,2,1.6,3.6,3.6,3.6h15.5l2,4.3c0.8,1.8,2.9,2.5,4.7,1.7
		c12.8-5.7,27.5-2.3,36.6,8.4c9.9,11.6,9.8,29.1-0.2,40.6c-1.3,1.5-1.1,3.8,0.4,5.1c0.7,0.6,1.5,0.9,2.4,0.9c1,0,2-0.4,2.7-1.2
		c12.3-14.2,12.4-35.7,0.3-50c-3.8-4.5-8.4-7.9-13.4-10.2c17.2-2.9,30.3-17.9,30.3-35.9c0-0.1,0-0.1,0-0.2c3.6,2.9,8.1,4.8,13,5
		c0.4,0,0.7,0,1.1,0c5.8,0,11.4-2.2,15.6-6.3c1.3-1.3,2.4-2.7,3.4-4.1c2.7,5.8,8.3,9.9,14.9,10.4c0.4,0,0.8,0,1.2,0
		c3.9,0,7.6-1.2,10.6-3.5v59.1C254.8,237.7,246,252.5,231.9,260.2z"/>
</g>
</svg>
