<?xml version="1.0" encoding="utf-8"?>
<!-- Generator: Adobe Illustrator 21.0.2, SVG Export Plug-In . SVG Version: 6.00 Build 0)  -->
<svg version="1.1" id="Layer_1" xmlns="http://www.w3.org/2000/svg" xmlns:xlink="http://www.w3.org/1999/xlink" x="0px" y="0px"
	 viewBox="0 0 345 360" style="enable-background:new 0 0 345 360;" xml:space="preserve">
<style type="text/css">
	.st0{fill:#F0C6BF;}
	.st1{fill:#F2E1DE;}
	.st2{fill:#E99F96;}
	.st3{fill:#540836;}
</style>
<g>
	<path class="st0" d="M244.9,107.9c-7.9,0-14.3,6.4-14.3,14.3v21.7h-1.8v-27.2c0-10.5-8.5-19-19-19c-10.5,0-19,8.5-19,19v27.2h-3.5
		l3.5-103.9c0.4-10.5-7.9-19.3-18.4-19.7c-10.5-0.4-19.3,7.9-19.7,18.4l-3.6,105.2H148c0-0.5-0.1-1.1-0.2-1.6L132.7,50
		c-1.7-10.4-11.5-17.4-21.9-15.7v0c-10.4,1.7-17.4,11.5-15.7,21.9l14.4,87.7v4.2c-7.3,0-13.8,4.8-15.9,11.8l-6,20
		c-3.8,12.6-1.4,26.2,6.4,36.7l21.6,30.2c8.2,14.4,23.7,24.2,41.4,24.2h54.5c26.3,0,47.6-21.3,47.6-47.6V122.1
		C259.1,114.2,252.7,107.9,244.9,107.9z"/>
	<g>
		<path class="st1" d="M244.9,107.9c-7.9,0-14.3,6.4-14.3,14.3v14.4c0-7.9,6.4-14.3,14.3-14.3c7.9,0,14.3,6.4,14.3,14.3v-14.4
			C259.1,114.2,252.7,107.9,244.9,107.9z"/>
	</g>
	<g>
		<path class="st1" d="M209.8,97.5c-10.5,0-19,8.5-19,19V131c0-10.5,8.5-19,19-19c10.5,0,19,8.5,19,19v-14.4
			C228.8,106.1,220.3,97.5,209.8,97.5z"/>
	</g>
	<g>
		<path class="st1" d="M97.6,70.5c-1.7-10.4,5.3-20.2,15.7-21.9C123.4,47,133,53.7,135,63.8L132.7,50c-1.7-10.4-11.5-17.4-21.9-15.7
			c-10.4,1.7-17.4,11.5-15.7,21.9L97.6,70.5z"/>
	</g>
	<g>
		<path class="st1" d="M172.4,20.3c-10.5-0.4-19.3,7.9-19.7,18.4l-0.5,13.7c0.7-10.1,9.4-18,19.6-17.6c10.5,0.4,18.7,9.2,18.4,19.7
			l0.5-14.4C191.2,29.4,182.9,20.6,172.4,20.3z"/>
	</g>
	<g>
		<g>
			<path class="st1" d="M141.4,199.7c-1.5,0.4-2.9,0.8-4.1,1.3c-0.6,0.2-1.3,0.5-1.9,0.8v14.4c13.6-6.1,30.3-3,40.8,9.3
				c3.8,4.5,6.3,9.8,7.4,15.3c2.1-10.2-0.3-21.3-7.4-29.7C167.2,200.5,153.6,196.7,141.4,199.7z"/>
		</g>
	</g>
	<g>
		<g>
			<path class="st1" d="M87.6,194.3l6-20c2.1-7,8.6-11.8,15.9-11.8h68.1c6,0,11.1,3.6,13.4,8.8c0.8-2.8,1.2-5.7,1.2-8.7
				c0-8-6.5-14.5-14.5-14.5h-68.1c-7.3,0-13.8,4.8-15.9,11.8l-6,20c-1.9,6.3-2.2,12.9-1.1,19.2C86.8,197.4,87.2,195.8,87.6,194.3z"
				/>
		</g>
	</g>
	<g>
		<path class="st2" d="M175.6,271c0.1-0.1,0.2-0.2,0.2-0.2c7.3-8.4,9.9-19.6,7.7-30c-1.2,5.6-3.7,11-7.7,15.6
			c-13.4,15.4-41.8,10.5-56-3.7l-4.2-5.9c4.5,8,11.2,14.5,19.4,18.8c-0.2-0.1-0.5-0.2-0.7-0.3v74.6h100v-74.6
			c-6.8,3.7-14.5,5.8-22.8,5.8H175.6z"/>
		<path class="st2" d="M243.9,164.1c-7.6-0.5-13.3-7.1-13.3-14.7v14.4c0,7.6,5.7,14.2,13.3,14.7c8.3,0.5,15.2-6,15.2-14.2v-14.4
			C259.1,158.1,252.2,164.7,243.9,164.1z"/>
		<path class="st2" d="M208.8,178.6c10.9,0.5,20-8.2,20-19v-14.4c0,10.8-9,19.5-20,19c-10.2-0.5-18.1-9.3-18.1-19.6V159
			C190.7,169.3,198.6,178.1,208.8,178.6z"/>
		<path class="st2" d="M135.3,201.7c12.1-5.4,26.5-3.5,36.9,5.5c11.7-5,19.8-16.6,19.8-30.1c0-2-0.4-4-1.2-5.7
			c-3.8,13.9-16.5,24.1-31.6,24.1h-46.8l4.4,6.3H135.3z"/>
	</g>
	<path class="st3" d="M244.9,104.2c-5.3,0-10.1,2.3-13.4,6c-2.7-9.4-11.4-16.3-21.7-16.3c-7,0-13.3,3.2-17.5,8.3l2.1-62.2
		c0.4-12.5-9.4-23-21.9-23.4c-12.5-0.4-23,9.4-23.4,21.9l-2.5,74.1l-10.3-63.2c-1-6-4.2-11.2-9.1-14.7c-4.9-3.5-10.9-4.9-16.9-4
		c-6,1-11.2,4.2-14.7,9.1c-3.5,4.9-4.9,10.9-4,16.9l14.3,87.4v0.7c-7.4,1.3-13.5,6.6-15.7,14l-6,20c-4.1,13.6-1.5,28.5,6.9,39.8
		l21.5,30.1c4.4,7.7,10.6,14,18.1,18.6v72.5c0,2,1.6,3.6,3.6,3.6h100c2,0,3.6-1.6,3.6-3.6v-72.5c15.4-9.2,24.8-25.9,24.8-43.9V122.1
		C262.7,112.3,254.7,104.2,244.9,104.2z M194.3,116.6c0-8.5,6.9-15.4,15.4-15.4c8.5,0,15.4,6.9,15.4,15.4v28.6
		c0,4.3-1.7,8.2-4.8,11.2c-3.1,2.9-7.1,4.4-11.4,4.2c-8.1-0.4-14.7-7.5-14.7-16V116.6z M156.4,38.8c0.3-8.5,7.5-15.2,15.9-14.9
		c8.5,0.3,15.2,7.4,14.9,15.9l-3.5,103.9c0,0.7,0.2,1.4,0.5,2c-2.1-0.8-4.3-1.3-6.6-1.3h-24.9c0-0.2,0.1-0.3,0.1-0.5L156.4,38.8z
		 M98.7,55.5c-0.7-4.1,0.3-8.2,2.7-11.5c2.4-3.3,6-5.6,10-6.2c4.1-0.7,8.2,0.3,11.5,2.7c3.3,2.4,5.6,6,6.2,10l15.1,92.3
		c0.1,0.4,0.1,0.9,0.1,1.3c0,0.1,0,0.2,0.1,0.3h-31.4v-0.6c0-0.2,0-0.4,0-0.6L98.7,55.5z M232.6,262c-1.2,0.6-1.9,1.8-1.9,3.2v71
		h-92.8v-71c0-1.3-0.7-2.5-1.9-3.2c-7.2-3.9-13.2-9.8-17.3-17c-0.1-0.1-0.1-0.2-0.2-0.3l-21.7-30.3c-7.1-9.6-9.3-22.1-5.8-33.5l6-20
		c1.7-5.5,6.6-9.2,12.4-9.2h68.1c6,0,10.9,4.9,10.9,10.9c0,16.1-13.1,29.2-29.2,29.2h-44.7c-2,0-3.6,1.6-3.6,3.6
		c0,2,1.6,3.6,3.6,3.6h15.5l2,4.3c0.8,1.8,2.9,2.5,4.7,1.7c12.8-5.7,27.5-2.3,36.6,8.4c9.9,11.6,9.8,29.1-0.2,40.6
		c-1.3,1.5-1.1,3.8,0.4,5.1c0.7,0.6,1.5,0.9,2.4,0.9c1,0,2-0.4,2.7-1.2c12.3-14.2,12.4-35.7,0.3-50c-3.8-4.5-8.4-7.9-13.4-10.2
		c17.1-2.9,30.2-17.8,30.3-35.7c3.6,2.9,8.1,4.8,13,5c0.4,0,0.7,0,1.1,0c5.8,0,11.4-2.2,15.6-6.3c1.3-1.3,2.4-2.7,3.4-4.1
		c2.7,5.8,8.3,9.9,14.9,10.4c0.4,0,0.8,0,1.2,0c3.9,0,7.6-1.2,10.6-3.5v59.1C255.5,239.5,246.7,254.3,232.6,262z M255.5,149.9
		c0,3-1.2,5.7-3.4,7.8c-2.2,2-5,3.1-8,2.9c-5.6-0.4-9.9-5.2-9.9-11.1v-27.3c0-5.9,4.8-10.7,10.7-10.7s10.7,4.8,10.7,10.7V149.9z"/>
</g>
</svg>
